<svg xmlns="http://www.w3.org/2000/svg" xmlns:xlink="http://www.w3.org/1999/xlink" preserveAspectRatio="xMidYMid" width="512" height="512" viewBox="0 0 512 512">
  <defs>
    <style>
      .cls-1 {
        fill: #e73955;
      }

      .cls-1, .cls-2, .cls-3 {
        fill-rule: evenodd;
      }

      .cls-2 {
        fill: #fbfbfc;
      }

      .cls-3 {
        fill: #50cfbb;
      }
    </style>
  </defs>
  <g>
    <path d="M384.980,209.583 C384.802,210.902 384.828,212.285 385.064,213.710 C385.181,214.422 385.351,215.145 385.572,215.875 C385.793,216.604 386.066,217.340 386.388,218.078 C386.710,218.817 387.081,219.558 387.498,220.296 C387.915,221.035 388.378,221.772 388.882,222.502 C389.888,223.962 391.059,225.396 392.340,226.774 C393.704,228.264 394.943,229.700 396.044,231.099 C402.221,237.780 406.000,246.709 406.000,256.522 C406.000,277.221 389.211,294.000 368.500,294.000 C347.789,294.000 331.000,277.221 331.000,256.522 C331.000,255.206 331.069,253.907 331.202,252.626 C331.209,251.696 331.229,250.764 331.280,249.826 C332.041,227.741 346.805,207.987 360.300,199.441 C367.071,194.908 373.747,192.188 379.925,190.523 C381.470,190.116 382.986,189.786 384.473,189.538 C385.217,189.414 385.953,189.311 386.682,189.230 C387.412,189.148 388.135,189.088 388.852,189.051 C391.720,188.902 394.499,189.117 397.245,189.755 C399.927,190.351 402.428,191.343 404.734,192.679 C401.828,194.628 398.686,196.309 395.249,197.719 C389.668,200.038 385.673,204.319 384.980,209.583 ZM376.000,323.970 C376.000,327.552 375.243,330.954 373.891,334.034 C373.829,334.554 373.729,335.075 373.571,335.594 L334.282,465.000 L292.792,465.000 L325.617,322.663 C325.812,321.815 326.128,321.028 326.531,320.305 C328.297,308.252 338.637,299.000 351.131,299.000 C364.866,299.000 376.000,310.180 376.000,323.970 Z" class="cls-1"/>
    <path d="M293.942,203.449 C293.979,204.128 294.000,204.811 294.000,205.500 C294.000,226.211 277.211,243.000 256.500,243.000 C235.789,243.000 219.000,226.211 219.000,205.500 C219.000,204.802 219.023,204.109 219.060,203.420 C219.039,203.074 219.017,202.728 218.998,202.337 C218.898,194.149 221.405,186.947 227.827,175.326 C231.024,169.934 235.182,164.669 240.285,157.974 C242.679,154.634 245.289,150.920 248.075,145.747 C250.081,142.560 251.610,138.985 252.521,135.199 C253.212,132.257 254.024,129.320 254.943,126.387 C254.962,126.381 254.981,126.375 255.000,126.369 L255.000,168.038 C255.000,168.038 255.000,168.038 255.000,168.038 L255.000,127.500 C255.000,126.672 255.672,126.000 256.500,126.000 C257.328,126.000 258.000,126.672 258.000,127.500 L258.000,125.994 C258.019,126.000 258.038,126.006 258.057,126.013 C258.976,128.962 259.788,131.916 260.479,134.874 C261.390,138.682 262.919,142.278 264.925,145.484 C267.711,150.686 270.321,154.421 272.715,157.780 C277.817,164.515 281.976,169.809 285.173,175.232 C291.595,186.920 294.102,194.163 294.002,202.399 C293.984,202.777 293.963,203.112 293.942,203.449 ZM256.000,249.000 C269.807,249.000 281.000,260.193 281.000,274.000 C281.000,274.857 280.956,275.704 280.871,276.539 C280.949,277.016 281.000,277.501 281.000,278.000 C281.000,278.707 280.910,279.392 280.756,280.053 C280.928,280.794 281.016,281.566 280.989,282.363 L275.096,454.319 C274.926,459.289 270.741,463.180 265.750,463.010 L263.741,462.942 C262.886,462.913 262.062,462.766 261.285,462.519 C259.915,465.740 256.722,468.000 253.000,468.000 L251.000,468.000 C247.221,468.000 243.991,465.668 242.657,462.366 C239.412,461.096 237.064,457.994 236.938,454.291 L231.074,282.391 C231.048,281.636 231.127,280.903 231.282,280.198 C231.104,279.493 231.000,278.760 231.000,278.000 C231.000,277.497 231.052,277.008 231.131,276.527 C231.046,275.696 231.000,274.854 231.000,274.000 C231.000,260.193 242.193,249.000 256.000,249.000 Z" class="cls-2"/>
    <path d="M177.963,462.000 L139.441,335.637 C139.361,335.374 139.296,335.110 139.243,334.846 C139.189,334.589 139.151,334.332 139.120,334.075 C139.120,334.075 139.120,334.075 139.120,334.075 C139.120,334.075 139.120,334.075 139.120,334.075 C138.782,333.307 138.480,332.520 138.218,331.714 C138.217,331.710 138.216,331.706 138.214,331.702 C138.089,331.313 137.973,330.921 137.866,330.525 C137.860,330.505 137.854,330.485 137.849,330.465 C137.748,330.089 137.658,329.710 137.575,329.328 C137.566,329.286 137.555,329.245 137.546,329.203 C137.470,328.845 137.404,328.484 137.344,328.121 C137.333,328.054 137.319,327.988 137.308,327.921 C137.255,327.581 137.212,327.238 137.172,326.893 C137.161,326.803 137.147,326.715 137.138,326.625 C137.103,326.290 137.079,325.952 137.057,325.613 C137.051,325.514 137.040,325.416 137.035,325.317 C137.012,324.881 137.000,324.442 137.000,324.000 C137.000,310.193 148.193,299.000 162.000,299.000 C162.413,299.000 162.824,299.011 163.232,299.031 C163.367,299.038 163.501,299.050 163.636,299.059 C163.908,299.077 164.179,299.095 164.448,299.121 C164.608,299.136 164.766,299.157 164.925,299.176 C165.167,299.204 165.409,299.233 165.649,299.268 C165.816,299.292 165.983,299.321 166.149,299.349 C166.377,299.387 166.605,299.427 166.832,299.471 C167.002,299.504 167.170,299.541 167.339,299.577 C167.559,299.625 167.778,299.675 167.996,299.729 C168.165,299.771 168.334,299.814 168.502,299.859 C168.716,299.917 168.929,299.977 169.141,300.041 C169.307,300.090 169.474,300.140 169.639,300.193 C169.850,300.261 170.058,300.332 170.266,300.405 C170.428,300.462 170.591,300.518 170.752,300.578 C170.961,300.657 171.167,300.740 171.373,300.824 C171.529,300.886 171.685,300.947 171.838,301.013 C172.052,301.105 172.262,301.203 172.473,301.300 C172.615,301.366 172.758,301.428 172.899,301.496 C173.152,301.619 173.401,301.749 173.649,301.880 C173.814,301.967 173.978,302.056 174.140,302.146 C174.398,302.289 174.654,302.434 174.906,302.586 C175.055,302.676 175.200,302.772 175.347,302.865 C175.524,302.977 175.701,303.087 175.874,303.203 C176.032,303.308 176.185,303.418 176.340,303.527 C176.497,303.638 176.656,303.748 176.811,303.862 C176.969,303.978 177.123,304.099 177.278,304.219 C177.425,304.332 177.571,304.445 177.714,304.561 C177.870,304.687 178.024,304.817 178.177,304.947 C178.313,305.063 178.449,305.179 178.582,305.298 C178.736,305.434 178.888,305.572 179.038,305.712 C179.165,305.831 179.290,305.950 179.414,306.071 C179.565,306.217 179.714,306.365 179.861,306.515 C179.978,306.634 180.092,306.755 180.206,306.876 C180.354,307.034 180.502,307.192 180.647,307.353 C180.751,307.470 180.852,307.590 180.954,307.708 C181.101,307.880 181.249,308.051 181.392,308.227 C181.479,308.332 181.561,308.441 181.645,308.548 C181.798,308.742 181.951,308.935 182.098,309.133 C182.134,309.181 182.167,309.232 182.203,309.280 C182.765,310.050 183.282,310.854 183.755,311.688 C183.803,311.772 183.854,311.856 183.901,311.941 C184.026,312.168 184.144,312.399 184.263,312.630 C184.319,312.740 184.376,312.848 184.431,312.959 C184.542,313.184 184.647,313.412 184.752,313.641 C184.806,313.761 184.862,313.881 184.915,314.002 C185.014,314.230 185.109,314.460 185.202,314.691 C185.252,314.816 185.302,314.942 185.350,315.068 C185.439,315.300 185.525,315.535 185.607,315.771 C185.651,315.898 185.694,316.026 185.737,316.154 C185.816,316.393 185.892,316.634 185.964,316.877 C186.002,317.002 186.037,317.129 186.072,317.255 C186.142,317.505 186.210,317.754 186.272,318.007 C186.301,318.125 186.326,318.244 186.354,318.363 C186.415,318.627 186.475,318.891 186.527,319.158 C186.546,319.254 186.561,319.352 186.579,319.448 C186.633,319.741 186.686,320.034 186.729,320.330 C186.729,320.330 186.729,320.330 186.729,320.330 C186.729,320.330 186.729,320.330 186.729,320.330 C186.913,320.658 187.073,321.002 187.216,321.356 C187.243,321.423 187.270,321.489 187.296,321.556 C187.434,321.923 187.557,322.299 187.648,322.691 L219.906,462.000 L177.963,462.000 ZM143.500,294.000 C122.789,294.000 106.000,277.211 106.000,256.500 C106.000,246.681 109.779,237.747 115.955,231.062 C117.057,229.662 118.296,228.225 119.660,226.734 C120.941,225.355 122.112,223.921 123.118,222.459 C123.622,221.729 124.085,220.992 124.502,220.252 C124.919,219.513 125.290,218.772 125.612,218.033 C125.934,217.295 126.207,216.558 126.428,215.828 C126.649,215.098 126.819,214.375 126.936,213.662 C127.172,212.236 127.198,210.853 127.020,209.533 C126.327,204.265 122.332,199.982 116.751,197.662 C113.314,196.251 110.172,194.569 107.266,192.619 C109.572,191.282 112.073,190.289 114.755,189.693 C117.501,189.055 120.280,188.840 123.148,188.989 C123.865,189.026 124.588,189.086 125.318,189.167 C126.047,189.249 126.783,189.352 127.527,189.476 C129.014,189.724 130.530,190.054 132.075,190.462 C138.253,192.128 144.929,194.849 151.700,199.385 C165.195,207.935 179.959,227.702 180.720,249.800 C180.771,250.738 180.791,251.671 180.798,252.601 C180.931,253.883 181.000,255.183 181.000,256.500 C181.000,277.211 164.211,294.000 143.500,294.000 Z" class="cls-3"/>
  </g>
  <path d="M256.000,481.000 C131.736,481.000 31.000,380.264 31.000,256.000 C31.000,131.736 131.736,31.000 256.000,31.000 C380.264,31.000 481.000,131.736 481.000,256.000 C481.000,380.264 380.264,481.000 256.000,481.000 ZM256.000,56.000 C145.543,56.000 56.000,145.543 56.000,256.000 C56.000,366.457 145.543,456.000 256.000,456.000 C366.457,456.000 456.000,366.457 456.000,256.000 C456.000,145.543 366.457,56.000 256.000,56.000 Z" class="cls-2"/>
</svg>
