<svg width="209" height="209" viewBox="0 0 209 209" version="1.1" xmlns="http://www.w3.org/2000/svg" xmlns:xlink="http://www.w3.org/1999/xlink">
<title>logo.svg</title>
<desc>Created using Figma</desc>
<g id="Canvas" transform="translate(-27 485)">
<g id="logo">
<g id="Group">
<g id="Vector">
<use xlink:href="#path0_fill" transform="translate(148.588 -411.615)" fill="#E9D758"/>
</g>
<g id="Vector">
<use xlink:href="#path1_fill" transform="translate(114.313 -440.881)" fill="#2264AA"/>
</g>
<g id="Vector">
<use xlink:href="#path2_fill" transform="translate(61.8333 -411.644)" fill="#E55E5B"/>
</g>
</g>
<g id="Vector">
<use xlink:href="#path3_fill" transform="translate(27 -485)" fill="#FFFFFF"/>
</g>
</g>
</g>
<defs>
<path id="path0_fill" fill-rule="evenodd" d="M 42.8162 9.55699C 42.7335 10.1696 42.7456 10.8119 42.8552 11.4738C 42.9096 11.8044 42.9885 12.1402 43.0912 12.4793C 43.1938 12.8179 43.3206 13.1597 43.4701 13.5024C 43.6197 13.8457 43.792 14.1898 43.9857 14.5326C 44.1793 14.8758 44.3944 15.2181 44.6285 15.5571C 45.0957 16.2352 45.6396 16.9013 46.2345 17.5413C 46.868 18.2333 47.4435 18.9002 47.9548 19.55C 50.8237 22.6529 52.5788 26.8 52.5788 31.3575C 52.5788 40.9711 44.7813 48.764 35.1622 48.764C 25.5431 48.764 17.7455 40.9711 17.7455 31.3575C 17.7455 30.7463 17.7775 30.143 17.8393 29.5481C 17.8426 29.1161 17.8519 28.6833 17.8755 28.2476C 18.229 17.9904 25.086 8.81573 31.3537 4.84659C 34.4985 2.74126 37.5991 1.47798 40.4684 0.704676C 41.186 0.515647 41.8901 0.36238 42.5807 0.247198C 42.9263 0.189607 43.2681 0.14177 43.6067 0.10415C 43.9457 0.0660653 44.2815 0.0381983 44.6145 0.0210138C 45.9466 -0.0481884 47.2372 0.0516718 48.5126 0.347987C 49.7583 0.624796 50.9198 1.08552 51.9908 1.70602C 50.6412 2.61122 49.1819 3.39195 47.5856 4.04682C 44.9935 5.12386 43.1381 7.11215 42.8162 9.55699ZM 38.6455 62.6834C 38.6455 64.347 38.2939 65.9271 37.666 67.3576C 37.6372 67.5991 37.5907 67.841 37.5174 68.0821L 19.2698 128.184L -3.62847e-06 128.184L 15.2454 62.0764C 15.336 61.6825 15.4827 61.317 15.6699 60.9812C 16.4901 55.3833 21.2925 51.0862 27.0952 51.0862C 33.4744 51.0862 38.6455 56.2787 38.6455 62.6834Z"/>
<path id="path1_fill" fill-rule="evenodd" d="M 34.8087 35.9735C 34.8258 36.2889 34.8356 36.6061 34.8356 36.9261C 34.8356 46.5452 27.038 54.3428 17.4189 54.3428C 7.79982 54.3428 0.00226078 46.5452 0.00226078 36.9261C 0.00226078 36.6019 0.0129419 36.2801 0.0301263 35.9601C 0.020373 35.7994 0.0101568 35.6387 0.0013324 35.4571C -0.045112 31.6542 1.11925 28.3093 4.10191 22.912C 5.58674 20.4077 7.5179 17.9624 9.88796 14.8529C 10.9998 13.3017 12.212 11.5767 13.506 9.17417C 14.4377 7.69398 15.1478 6.0336 15.5709 4.27521C 15.8918 2.90882 16.269 1.54474 16.6958 0.182527C 16.7046 0.17974 16.7134 0.176955 16.7223 0.174168L 16.7223 19.5271L 16.7223 0.699453C 16.7223 0.314893 17.0344 0.00278667 17.4189 0.00278667C 17.8035 0.00278667 18.1156 0.314893 18.1156 0.699453L 18.1156 1.53076e-06C 18.1244 0.0027882 18.1332 0.00557356 18.1421 0.00882467C 18.5689 1.37847 18.946 2.75044 19.267 4.12426C 19.6901 5.89287 20.4002 7.56301 21.3319 9.05202C 22.6258 11.4681 23.838 13.2028 24.9499 14.7628C 27.3195 17.8909 29.2511 20.3496 30.7359 22.8683C 33.7186 28.2967 34.883 31.6607 34.8365 35.4859C 34.8282 35.6614 34.8184 35.817 34.8087 35.9735ZM 17.1867 57.1295C 23.5993 57.1295 28.7978 62.328 28.7978 68.7406C 28.7978 69.1386 28.7774 69.532 28.7379 69.9198C 28.7741 70.1413 28.7978 70.3666 28.7978 70.5983C 28.7978 70.9267 28.756 71.2449 28.6845 71.5518C 28.7644 71.896 28.8053 72.2546 28.7927 72.6247L 26.0557 152.489C 25.9768 154.797 24.0331 156.604 21.715 156.525L 20.782 156.494C 20.3849 156.48 20.0022 156.412 19.6413 156.297C 19.005 157.793 17.522 158.843 15.7934 158.843L 14.8645 158.843C 13.1093 158.843 11.6092 157.76 10.9896 156.226C 9.4825 155.636 8.39199 154.196 8.33347 152.476L 5.60997 72.6377C 5.59789 72.2871 5.63458 71.9466 5.70657 71.6192C 5.6239 71.2918 5.57559 70.9513 5.57559 70.5983C 5.57559 70.3647 5.59974 70.1376 5.63644 69.9142C 5.59696 69.5283 5.57559 69.1372 5.57559 68.7406C 5.57559 62.328 10.7741 57.1295 17.1867 57.1295Z"/>
<path id="path2_fill" fill-rule="evenodd" d="M 33.4228 126.819L 15.5315 68.1309C 15.4943 68.0087 15.4641 67.8861 15.4395 67.7635C 15.4144 67.6441 15.3968 67.5248 15.3824 67.4054C 15.2254 67.0487 15.0852 66.6832 14.9635 66.3088C 14.963 66.307 14.9625 66.3051 14.9616 66.3033C 14.9036 66.1226 14.8497 65.9405 14.8 65.7566C 14.7972 65.7473 14.7944 65.738 14.7921 65.7288C 14.7452 65.5541 14.7034 65.3781 14.6648 65.2007C 14.6607 65.1812 14.6555 65.1621 14.6514 65.1426C 14.6161 64.9764 14.5854 64.8087 14.5575 64.6401C 14.5524 64.609 14.5459 64.5783 14.5408 64.5472C 14.5162 64.3893 14.4962 64.23 14.4777 64.0698C 14.4726 64.028 14.4661 63.9871 14.4619 63.9453C 14.4456 63.7897 14.4345 63.6327 14.4243 63.4753C 14.4215 63.4293 14.4164 63.3838 14.414 63.3378C 14.4034 63.1353 14.3978 62.9314 14.3978 62.7261C 14.3978 56.3135 19.5963 51.115 26.0089 51.115C 26.2007 51.115 26.3916 51.1201 26.5811 51.1294C 26.6438 51.1327 26.706 51.1382 26.7687 51.1424C 26.8951 51.1508 27.0209 51.1591 27.1458 51.1712C 27.2202 51.1782 27.2935 51.1879 27.3674 51.1968C 27.4798 51.2098 27.5922 51.2232 27.7036 51.2395C 27.7812 51.2506 27.8588 51.2641 27.9359 51.2771C 28.0418 51.2948 28.1477 51.3133 28.2531 51.3338C 28.332 51.3491 28.4101 51.3663 28.4886 51.383C 28.5907 51.4053 28.6924 51.4285 28.7937 51.4536C 28.8722 51.4731 28.9507 51.4931 29.0287 51.514C 29.1281 51.5409 29.227 51.5688 29.3255 51.5985C 29.4026 51.6213 29.4802 51.6445 29.5568 51.6691C 29.6548 51.7007 29.7514 51.7337 29.848 51.7676C 29.9232 51.794 29.9989 51.82 30.0737 51.8479C 30.1708 51.8846 30.2665 51.9232 30.3621 51.9622C 30.4346 51.991 30.507 52.0193 30.5781 52.0499C 30.6775 52.0927 30.775 52.1382 30.873 52.1832C 30.939 52.2139 31.0054 52.2427 31.0709 52.2743C 31.1884 52.3314 31.304 52.3918 31.4192 52.4526C 31.4958 52.493 31.572 52.5344 31.6472 52.5762C 31.7671 52.6426 31.886 52.7099 32.003 52.7805C 32.0722 52.8223 32.1396 52.8669 32.2078 52.9101C 32.29 52.9621 32.3722 53.0132 32.4526 53.0671C 32.526 53.1158 32.597 53.1669 32.669 53.2176C 32.7419 53.2691 32.8158 53.3202 32.8878 53.3731C 32.9612 53.427 33.0327 53.4832 33.1047 53.5389C 33.1729 53.5914 33.2408 53.6439 33.3072 53.6978C 33.3796 53.7563 33.4511 53.8167 33.5222 53.8771C 33.5854 53.9309 33.6485 53.9848 33.7103 54.0401C 33.7818 54.1033 33.8524 54.1673 33.9221 54.2324C 33.9811 54.2876 34.0391 54.3429 34.0967 54.3991C 34.1669 54.4669 34.2361 54.5357 34.3043 54.6053C 34.3587 54.6606 34.4116 54.7168 34.4646 54.773C 34.5333 54.8464 34.602 54.9197 34.6694 54.9945C 34.7177 55.0489 34.7646 55.1046 34.812 55.1594C 34.8802 55.2393 34.949 55.3187 35.0154 55.4004C 35.0558 55.4492 35.0939 55.4998 35.1329 55.5495C 35.204 55.6396 35.275 55.7293 35.3433 55.8212C 35.36 55.8435 35.3753 55.8672 35.3921 55.8895C 35.6531 56.2471 35.8932 56.6205 36.1129 57.0079C 36.1352 57.0469 36.1589 57.0859 36.1807 57.1254C 36.2387 57.2308 36.2935 57.3381 36.3488 57.4454C 36.3748 57.4965 36.4013 57.5466 36.4268 57.5982C 36.4784 57.7027 36.5272 57.8086 36.5759 57.9149C 36.601 57.9707 36.627 58.0264 36.6516 58.0826C 36.6976 58.1885 36.7417 58.2953 36.7849 58.4026C 36.8081 58.4607 36.8314 58.5192 36.8537 58.5777C 36.895 58.6855 36.9349 58.7946 36.973 58.9042C 36.9935 58.9632 37.0134 59.0226 37.0334 59.0821C 37.0701 59.1931 37.1054 59.305 37.1388 59.4179C 37.1565 59.476 37.1727 59.5349 37.189 59.5934C 37.2215 59.7096 37.2531 59.8252 37.2819 59.9427C 37.2954 59.9975 37.307 60.0528 37.32 60.1081C 37.3483 60.2307 37.3762 60.3533 37.4003 60.4773C 37.4091 60.5219 37.4161 60.5674 37.4245 60.612C 37.4495 60.7481 37.4742 60.8841 37.4941 61.0216C 37.5796 61.1739 37.6539 61.3337 37.7203 61.4981C 37.7329 61.5292 37.7454 61.5599 37.7575 61.591C 37.8216 61.7615 37.8787 61.9361 37.921 62.1182L 52.903 126.819L 33.4228 126.819ZM 17.4167 48.7928C 7.79756 48.7928 0 40.9952 0 31.3761C 0 26.8157 1.75514 22.6664 4.62355 19.5616C 5.13536 18.9114 5.71081 18.244 6.34431 17.5515C 6.93927 16.911 7.48313 16.245 7.95036 15.566C 8.18444 15.2269 8.39948 14.8846 8.59315 14.5409C 8.78682 14.1977 8.95913 13.8536 9.10868 13.5103C 9.25823 13.1676 9.38503 12.8253 9.48767 12.4862C 9.59031 12.1472 9.66927 11.8114 9.72361 11.4803C 9.83322 10.818 9.84529 10.1756 9.76262 9.56256C 9.44076 7.11587 7.58531 5.12666 4.99324 4.04914C 3.39695 3.39381 1.93766 2.61262 0.587986 1.70695C 1.659 1.08599 2.82057 0.624791 4.06621 0.347982C 5.34157 0.0516663 6.63227 -0.0481868 7.96429 0.0210154C 8.2973 0.0381999 8.63309 0.0660708 8.97214 0.103691C 9.31072 0.141775 9.65255 0.189609 9.9981 0.2472C 10.6887 0.362382 11.3928 0.515652 12.1104 0.705145C 14.9797 1.47891 18.0804 2.74266 21.2251 4.84938C 27.4928 8.82038 34.3498 18.0011 34.7033 28.2643C 34.727 28.7 34.7363 29.1333 34.7395 29.5653C 34.8013 30.1607 34.8333 30.7645 34.8333 31.3761C 34.8333 40.9952 27.0358 48.7928 17.4167 48.7928Z"/>
<path id="path3_fill" fill-rule="evenodd" d="M 104.5 209C 46.7863 209 0 162.214 0 104.5C 0 46.7863 46.7863 0 104.5 0C 162.214 0 209 46.7863 209 104.5C 209 162.214 162.214 209 104.5 209ZM 104.5 11.6111C 53.1989 11.6111 11.6111 53.1989 11.6111 104.5C 11.6111 155.801 53.1989 197.389 104.5 197.389C 155.801 197.389 197.389 155.801 197.389 104.5C 197.389 53.1989 155.801 11.6111 104.5 11.6111Z"/>
</defs>
</svg>